<?xml version="1.0" encoding="utf-8"?>
<!-- Generator: Adobe Illustrator 17.0.0, SVG Export Plug-In . SVG Version: 6.00 Build 0)  -->
<!DOCTYPE svg PUBLIC "-//W3C//DTD SVG 1.1//EN" "http://www.w3.org/Graphics/SVG/1.1/DTD/svg11.dtd">
<svg version="1.1" id="Слой_1" xmlns="http://www.w3.org/2000/svg" xmlns:xlink="http://www.w3.org/1999/xlink" x="0px" y="0px"
	 width="512px" height="512px" viewBox="0 0 512 512" enable-background="new 0 0 512 512" xml:space="preserve">
<g>
	<path fill="#244191" d="M319.624,183.859c0-1.974-0.802-3.918-2.204-5.31c-1.393-1.403-3.327-2.204-5.31-2.204
		s-3.918,0.802-5.31,2.204c-1.403,1.393-2.204,3.337-2.204,5.31c0,1.974,0.802,3.918,2.204,5.31c1.393,1.403,3.337,2.204,5.31,2.204
		s3.918-0.802,5.31-2.204C318.823,187.777,319.624,185.833,319.624,183.859z"/>
	<path fill="#244191" d="M319.624,215.922c0-1.974-0.802-3.918-2.204-5.31c-1.403-1.403-3.337-2.204-5.31-2.204
		s-3.918,0.802-5.31,2.204c-1.403,1.393-2.204,3.326-2.204,5.31c0,1.974,0.802,3.918,2.204,5.31c1.393,1.403,3.326,2.204,5.31,2.204
		c1.974,0,3.918-0.802,5.31-2.204C318.823,219.839,319.624,217.896,319.624,215.922z"/>
	<path fill="#244191" d="M319.624,247.984c0-1.984-0.802-3.918-2.204-5.31c-1.393-1.403-3.337-2.204-5.31-2.204
		s-3.918,0.802-5.31,2.204c-1.403,1.393-2.204,3.326-2.204,5.31c0,1.974,0.802,3.918,2.204,5.31c1.393,1.403,3.337,2.204,5.31,2.204
		c1.984,0,3.918-0.802,5.31-2.204C318.823,251.902,319.624,249.958,319.624,247.984z"/>
	<path fill="#244191" d="M319.624,280.047c0-1.974-0.802-3.918-2.204-5.31c-1.393-1.403-3.337-2.204-5.31-2.204
		s-3.918,0.802-5.31,2.204c-1.403,1.393-2.204,3.337-2.204,5.31s0.802,3.918,2.204,5.31c1.393,1.403,3.327,2.204,5.31,2.204
		s3.918-0.802,5.31-2.204C318.823,283.965,319.624,282.021,319.624,280.047z"/>
	<path fill="#244191" d="M319.624,312.11c0-1.974-0.802-3.918-2.204-5.31c-1.393-1.403-3.337-2.204-5.31-2.204
		s-3.918,0.802-5.31,2.204c-1.403,1.393-2.204,3.337-2.204,5.31s0.802,3.918,2.204,5.31c1.393,1.403,3.337,2.204,5.31,2.204
		s3.918-0.802,5.31-2.204C318.823,316.027,319.624,314.083,319.624,312.11z"/>
	<path fill="#244191" d="M317.42,60.919c1.403-1.393,2.204-3.337,2.204-5.31s-0.802-3.918-2.204-5.31
		c-1.393-1.403-3.337-2.204-5.31-2.204s-3.918,0.802-5.31,2.204c-1.403,1.393-2.204,3.337-2.204,5.31
		c0,1.984,0.802,3.918,2.204,5.31c1.393,1.403,3.326,2.204,5.31,2.204C314.083,63.123,316.027,62.322,317.42,60.919z"/>
	<path fill="#244191" d="M319.624,87.671c0-1.974-0.802-3.918-2.204-5.31c-1.393-1.403-3.337-2.204-5.31-2.204
		s-3.918,0.802-5.31,2.204c-1.403,1.393-2.204,3.337-2.204,5.31c0,1.974,0.802,3.918,2.204,5.31c1.393,1.403,3.337,2.204,5.31,2.204
		s3.918-0.802,5.31-2.204C318.823,91.589,319.624,89.645,319.624,87.671z"/>
	<path fill="#244191" d="M319.624,119.734c0-1.974-0.802-3.918-2.204-5.31c-1.393-1.403-3.337-2.204-5.31-2.204
		s-3.918,0.802-5.31,2.204c-1.403,1.393-2.204,3.337-2.204,5.31c0,1.974,0.802,3.918,2.204,5.31c1.393,1.403,3.337,2.204,5.31,2.204
		s3.918-0.802,5.31-2.204C318.823,123.652,319.624,121.708,319.624,119.734z"/>
	<path fill="#244191" d="M319.624,151.797c0-1.974-0.802-3.918-2.204-5.31c-1.393-1.403-3.337-2.204-5.31-2.204
		s-3.918,0.802-5.31,2.204c-1.403,1.393-2.204,3.337-2.204,5.31c0,1.974,0.802,3.918,2.204,5.31c1.393,1.403,3.337,2.204,5.31,2.204
		s3.918-0.802,5.31-2.204C318.823,155.714,319.624,153.77,319.624,151.797z"/>
	<path fill="#244191" d="M415.812,183.859c0-1.974-0.802-3.918-2.204-5.31c-1.393-1.403-3.327-2.204-5.31-2.204
		s-3.918,0.802-5.31,2.204c-1.403,1.393-2.204,3.337-2.204,5.31c0,1.974,0.802,3.918,2.204,5.31c1.393,1.403,3.337,2.204,5.31,2.204
		s3.918-0.802,5.31-2.204C415.011,187.777,415.812,185.833,415.812,183.859z"/>
	<path fill="#244191" d="M415.812,215.922c0-1.974-0.802-3.918-2.204-5.31c-1.393-1.403-3.337-2.204-5.31-2.204
		s-3.918,0.802-5.31,2.204c-1.403,1.393-2.204,3.337-2.204,5.31c0,1.974,0.802,3.918,2.204,5.31c1.393,1.403,3.337,2.204,5.31,2.204
		s3.918-0.802,5.31-2.204C415.011,219.839,415.812,217.896,415.812,215.922z"/>
	<path fill="#244191" d="M415.812,247.984c0-1.974-0.802-3.918-2.204-5.31c-1.393-1.403-3.337-2.204-5.31-2.204
		s-3.918,0.802-5.31,2.204c-1.403,1.393-2.204,3.337-2.204,5.31c0,1.974,0.802,3.918,2.204,5.31c1.393,1.403,3.327,2.204,5.31,2.204
		s3.918-0.802,5.31-2.204C415.011,251.902,415.812,249.958,415.812,247.984z"/>
	<path fill="#244191" d="M415.812,280.047c0-1.974-0.802-3.918-2.204-5.31c-1.393-1.403-3.337-2.204-5.31-2.204
		s-3.918,0.802-5.31,2.204c-1.403,1.393-2.204,3.337-2.204,5.31s0.802,3.918,2.204,5.31c1.393,1.403,3.327,2.204,5.31,2.204
		s3.918-0.802,5.31-2.204C415.011,283.965,415.812,282.021,415.812,280.047z"/>
	<path fill="#244191" d="M415.812,312.11c0-1.984-0.802-3.918-2.204-5.31c-1.393-1.403-3.337-2.204-5.31-2.204
		s-3.918,0.802-5.31,2.204c-1.403,1.393-2.204,3.326-2.204,5.31c0,1.984,0.802,3.918,2.204,5.31c1.393,1.403,3.337,2.204,5.31,2.204
		s3.918-0.802,5.31-2.204C415.011,316.027,415.812,314.093,415.812,312.11z"/>
	<path fill="#244191" d="M415.812,344.172c0-1.974-0.802-3.918-2.204-5.31c-1.393-1.403-3.337-2.204-5.31-2.204
		s-3.918,0.802-5.31,2.204c-1.403,1.393-2.204,3.326-2.204,5.31c0,1.974,0.802,3.918,2.204,5.31c1.393,1.403,3.337,2.204,5.31,2.204
		s3.918-0.802,5.31-2.204C415.011,348.09,415.812,346.146,415.812,344.172z"/>
	<path fill="#244191" d="M415.812,376.235c0-1.974-0.802-3.918-2.204-5.31c-1.393-1.403-3.326-2.204-5.31-2.204
		c-1.974,0-3.918,0.802-5.31,2.204c-1.403,1.393-2.204,3.326-2.204,5.31c0,1.974,0.802,3.918,2.204,5.31
		c1.393,1.403,3.337,2.204,5.31,2.204s3.918-0.802,5.31-2.204C415.011,380.153,415.812,378.209,415.812,376.235z"/>
	<path fill="#244191" d="M413.608,60.919c1.403-1.393,2.204-3.326,2.204-5.31c0-1.974-0.802-3.918-2.204-5.31
		c-1.393-1.403-3.337-2.204-5.31-2.204s-3.918,0.802-5.31,2.204c-1.403,1.393-2.204,3.337-2.204,5.31s0.802,3.918,2.204,5.31
		c1.393,1.403,3.337,2.204,5.31,2.204C410.281,63.123,412.215,62.322,413.608,60.919z"/>
	<path fill="#244191" d="M415.812,87.671c0-1.974-0.802-3.918-2.204-5.31c-1.393-1.403-3.337-2.204-5.31-2.204
		s-3.918,0.802-5.31,2.204c-1.403,1.393-2.204,3.337-2.204,5.31c0,1.974,0.802,3.918,2.204,5.31c1.393,1.403,3.337,2.204,5.31,2.204
		s3.918-0.802,5.31-2.204C415.011,91.579,415.812,89.645,415.812,87.671z"/>
	<path fill="#244191" d="M415.812,119.734c0-1.974-0.802-3.918-2.204-5.31c-1.393-1.403-3.337-2.204-5.31-2.204
		s-3.918,0.802-5.31,2.204c-1.403,1.393-2.204,3.337-2.204,5.31c0,1.974,0.802,3.918,2.204,5.31c1.393,1.403,3.337,2.204,5.31,2.204
		s3.918-0.802,5.31-2.204C415.011,123.652,415.812,121.708,415.812,119.734z"/>
	<path fill="#244191" d="M415.812,151.797c0-1.974-0.802-3.918-2.204-5.31c-1.393-1.403-3.337-2.204-5.31-2.204
		s-3.918,0.802-5.31,2.204c-1.403,1.393-2.204,3.337-2.204,5.31c0,1.974,0.802,3.918,2.204,5.31c1.393,1.403,3.337,2.204,5.31,2.204
		s3.918-0.802,5.31-2.204C415.011,155.714,415.812,153.77,415.812,151.797z"/>
	<path fill="#244191" d="M223.436,183.859c0-1.974-0.802-3.918-2.204-5.31c-1.393-1.403-3.327-2.204-5.31-2.204
		s-3.918,0.802-5.31,2.204c-1.403,1.393-2.204,3.337-2.204,5.31c0,1.974,0.802,3.918,2.204,5.31c1.393,1.403,3.337,2.204,5.31,2.204
		s3.918-0.802,5.31-2.204C222.635,187.777,223.436,185.833,223.436,183.859z"/>
	<path fill="#244191" d="M221.232,60.919c1.403-1.393,2.204-3.337,2.204-5.31s-0.802-3.918-2.204-5.31
		c-1.393-1.403-3.337-2.204-5.31-2.204s-3.918,0.802-5.31,2.204c-1.403,1.393-2.204,3.337-2.204,5.31
		c0,1.984,0.802,3.918,2.204,5.31c1.393,1.403,3.327,2.204,5.31,2.204C217.896,63.123,219.839,62.322,221.232,60.919z"/>
	<path fill="#244191" d="M223.436,87.671c0-1.974-0.802-3.918-2.204-5.31c-1.393-1.403-3.337-2.204-5.31-2.204
		s-3.918,0.802-5.31,2.204c-1.403,1.393-2.204,3.337-2.204,5.31c0,1.974,0.802,3.918,2.204,5.31c1.393,1.403,3.337,2.204,5.31,2.204
		s3.918-0.802,5.31-2.204C222.635,91.589,223.436,89.645,223.436,87.671z"/>
	<path fill="#244191" d="M223.436,119.734c0-1.974-0.802-3.918-2.204-5.31c-1.393-1.403-3.337-2.204-5.31-2.204
		s-3.918,0.802-5.31,2.204c-1.403,1.393-2.204,3.337-2.204,5.31c0,1.974,0.802,3.918,2.204,5.31c1.393,1.403,3.337,2.204,5.31,2.204
		s3.918-0.802,5.31-2.204C222.635,123.642,223.436,121.708,223.436,119.734z"/>
	<path fill="#244191" d="M223.436,151.797c0-1.974-0.802-3.918-2.204-5.31c-1.393-1.403-3.337-2.204-5.31-2.204
		s-3.918,0.802-5.31,2.204c-1.403,1.393-2.204,3.326-2.204,5.31c0,1.974,0.802,3.918,2.204,5.31c1.393,1.403,3.337,2.204,5.31,2.204
		s3.918-0.802,5.31-2.204C222.635,155.714,223.436,153.77,223.436,151.797z"/>
	<path fill="#244191" d="M125.044,60.919c1.403-1.393,2.204-3.326,2.204-5.31c0-1.974-0.802-3.918-2.204-5.31
		c-1.393-1.403-3.337-2.204-5.31-2.204c-1.974,0-3.918,0.802-5.31,2.204c-1.403,1.393-2.204,3.337-2.204,5.31
		s0.802,3.918,2.204,5.31c1.393,1.403,3.337,2.204,5.31,2.204C121.718,63.123,123.652,62.322,125.044,60.919z"/>
	<path fill="#244191" d="M127.249,87.671c0-1.974-0.802-3.918-2.204-5.31c-1.393-1.403-3.337-2.204-5.31-2.204
		c-1.974,0-3.918,0.802-5.31,2.204c-1.403,1.393-2.204,3.337-2.204,5.31c0,1.974,0.802,3.918,2.204,5.31
		c1.393,1.403,3.337,2.204,5.31,2.204c1.974,0,3.918-0.802,5.31-2.204C126.447,91.589,127.249,89.645,127.249,87.671z"/>
	<path fill="#244191" d="M127.249,119.734c0-1.974-0.802-3.918-2.204-5.31c-1.393-1.403-3.337-2.204-5.31-2.204
		c-1.974,0-3.918,0.802-5.31,2.204c-1.403,1.393-2.204,3.337-2.204,5.31c0,1.974,0.802,3.918,2.204,5.31
		c1.393,1.403,3.337,2.204,5.31,2.204c1.974,0,3.918-0.802,5.31-2.204C126.447,123.652,127.249,121.708,127.249,119.734z"/>
	<path fill="#244191" d="M127.249,151.797c0-1.974-0.802-3.918-2.204-5.31c-1.393-1.403-3.337-2.204-5.31-2.204
		c-1.974,0-3.918,0.802-5.31,2.204c-1.403,1.393-2.204,3.326-2.204,5.31c0,1.974,0.802,3.918,2.204,5.31
		c1.393,1.403,3.337,2.204,5.31,2.204c1.974,0,3.918-0.802,5.31-2.204C126.447,155.714,127.249,153.77,127.249,151.797z"/>
	<path fill="#244191" d="M504.485,432.845c-4.15,0-7.515,3.365-7.515,7.515v45.984l-83.285-83.292
		c-0.017-0.018-0.035-0.035-0.052-0.052l-0.018-0.018c-0.022-0.022-0.047-0.04-0.069-0.062c-0.153-0.149-0.311-0.295-0.477-0.431
		c-0.07-0.057-0.144-0.107-0.215-0.162c-0.123-0.093-0.243-0.187-0.373-0.274c-0.126-0.084-0.257-0.158-0.387-0.234
		c-0.081-0.047-0.157-0.098-0.24-0.142c-0.189-0.102-0.382-0.191-0.577-0.276c-0.029-0.013-0.056-0.029-0.086-0.041l-0.024-0.01
		c-0.023-0.009-0.045-0.019-0.067-0.028l-93.903-39.126l-94.918-150.289c-0.004-0.007-0.01-0.013-0.014-0.02
		c-0.161-0.253-0.339-0.496-0.531-0.73c-0.045-0.055-0.093-0.105-0.139-0.158c-0.144-0.166-0.296-0.327-0.456-0.481
		c-0.071-0.068-0.143-0.136-0.216-0.201c-0.147-0.131-0.302-0.254-0.46-0.375c-0.077-0.059-0.152-0.121-0.232-0.177
		c-0.225-0.157-0.46-0.306-0.707-0.441c0,0-0.001-0.001-0.002-0.001c-0.255-0.139-0.519-0.26-0.788-0.368
		c-0.912-0.369-1.861-0.551-2.801-0.551c-0.004,0-0.007,0.001-0.011,0.001c-0.002,0-0.003,0-0.004,0
		c-0.057,0-0.114,0.011-0.171,0.012c-0.276,0.007-0.551,0.02-0.823,0.057c-0.167,0.023-0.332,0.066-0.498,0.1
		c-0.165,0.034-0.331,0.06-0.493,0.104c-0.152,0.042-0.302,0.102-0.453,0.154c-0.176,0.06-0.353,0.117-0.524,0.19
		c-0.126,0.055-0.248,0.123-0.373,0.185c-0.192,0.096-0.384,0.192-0.568,0.305c-0.034,0.021-0.07,0.035-0.104,0.056
		c-0.163,0.102-0.315,0.215-0.467,0.329c-0.049,0.037-0.102,0.069-0.151,0.107c-0.237,0.185-0.457,0.385-0.666,0.593
		c-0.058,0.057-0.112,0.118-0.168,0.178c-0.169,0.18-0.329,0.367-0.478,0.56c-0.042,0.055-0.086,0.108-0.127,0.165
		c-0.188,0.258-0.363,0.527-0.515,0.806c-0.003,0.005-0.007,0.01-0.01,0.016l-40.449,74.157l-42.165-105.412
		c-0.002-0.006-0.006-0.011-0.008-0.016c-0.129-0.322-0.287-0.633-0.461-0.936c-0.035-0.061-0.071-0.121-0.107-0.181
		c-0.175-0.287-0.366-0.566-0.581-0.83c-0.019-0.023-0.041-0.044-0.06-0.067c-0.191-0.229-0.401-0.445-0.622-0.652
		c-0.065-0.062-0.131-0.123-0.199-0.182c-0.237-0.206-0.486-0.405-0.754-0.585c-0.009-0.006-0.018-0.014-0.028-0.02l-92.829-61.886
		V31.061h473.425c4.15,0,7.515-3.365,7.515-7.515s-3.365-7.515-7.515-7.515h-88.673V7.515c0-4.15-3.365-7.515-7.515-7.515
		s-7.515,3.365-7.515,7.515v8.517h-81.159V7.515c0-4.15-3.365-7.515-7.515-7.515s-7.515,3.365-7.515,7.515v8.517h-81.159V7.515
		c0-4.15-3.365-7.515-7.515-7.515s-7.515,3.365-7.515,7.515v8.517h-81.159V7.515c0-4.15-3.365-7.515-7.515-7.515
		c-4.15,0-7.515,3.365-7.515,7.515v8.517H31.061V7.515c0-4.15-3.365-7.515-7.515-7.515s-7.515,3.365-7.515,7.515v8.517H7.515
		C3.364,16.031,0,19.396,0,23.546s3.365,7.515,7.515,7.515h8.517v81.159H7.515c-4.15,0-7.515,3.365-7.515,7.515
		c0,4.15,3.365,7.515,7.515,7.515h8.517v81.159H7.515c-4.15,0-7.515,3.365-7.515,7.515s3.365,7.515,7.515,7.515h8.517v81.159H7.515
		c-4.15,0-7.515,3.365-7.515,7.515c0,4.15,3.365,7.515,7.515,7.515h8.517v81.159H7.515c-4.15,0-7.515,3.365-7.515,7.515
		c0,4.15,3.365,7.515,7.515,7.515h8.517v88.673c0,4.15,3.365,7.515,7.515,7.515s7.515-3.365,7.515-7.515v-370.71l82.566,55.045
		l47.227,118.069c0,0.001,0.001,0.002,0.001,0.003c0.093,0.232,0.198,0.459,0.314,0.681c0.041,0.078,0.089,0.151,0.132,0.227
		c0.077,0.137,0.153,0.276,0.239,0.408c0.067,0.104,0.143,0.2,0.215,0.301c0.071,0.098,0.138,0.198,0.214,0.294
		c0.088,0.111,0.185,0.213,0.28,0.319c0.069,0.076,0.134,0.155,0.206,0.229c0.114,0.118,0.236,0.226,0.359,0.336
		c0.06,0.054,0.116,0.111,0.178,0.163c0.172,0.144,0.352,0.279,0.535,0.407c0.018,0.012,0.033,0.026,0.051,0.038
		c0.418,0.286,0.862,0.528,1.326,0.724c0.075,0.032,0.152,0.056,0.228,0.085c0.151,0.059,0.302,0.118,0.457,0.166
		c0.108,0.034,0.217,0.058,0.326,0.087c0.127,0.034,0.254,0.07,0.383,0.097c0.112,0.023,0.225,0.038,0.338,0.056
		c0.13,0.021,0.259,0.044,0.39,0.058c0.104,0.011,0.207,0.014,0.312,0.021c0.141,0.009,0.284,0.02,0.426,0.021
		c0.091,0.001,0.182-0.005,0.274-0.008c0.153-0.004,0.306-0.007,0.46-0.021c0.086-0.008,0.172-0.023,0.258-0.034
		c0.154-0.02,0.31-0.038,0.464-0.067c0.103-0.02,0.205-0.048,0.309-0.072c0.132-0.032,0.266-0.058,0.398-0.097
		c0.21-0.061,0.418-0.134,0.623-0.213c0.023-0.009,0.047-0.014,0.071-0.024c0,0,0.001-0.001,0.002-0.001
		c0.232-0.093,0.46-0.197,0.682-0.314c0.075-0.039,0.143-0.084,0.216-0.125c0.141-0.08,0.284-0.158,0.42-0.247
		c0.097-0.064,0.188-0.135,0.283-0.203c0.104-0.075,0.21-0.147,0.312-0.228c0.102-0.081,0.196-0.17,0.293-0.256
		c0.086-0.077,0.174-0.15,0.258-0.231c0.104-0.101,0.198-0.209,0.296-0.317c0.067-0.074,0.138-0.144,0.203-0.222
		c0.117-0.14,0.225-0.287,0.332-0.435c0.037-0.051,0.078-0.099,0.114-0.152c0.143-0.209,0.276-0.424,0.396-0.645l41.971-76.947
		l89.361,141.486c0.011,0.018,0.024,0.034,0.036,0.052c0.088,0.137,0.184,0.269,0.282,0.4c0.051,0.069,0.099,0.141,0.152,0.208
		c0.097,0.123,0.203,0.239,0.31,0.357c0.061,0.068,0.119,0.139,0.182,0.204c0.094,0.097,0.196,0.187,0.297,0.28
		c0.082,0.076,0.162,0.156,0.247,0.228c0.081,0.068,0.169,0.13,0.253,0.195c0.112,0.086,0.222,0.175,0.339,0.255
		c0.069,0.047,0.144,0.089,0.216,0.135c0.139,0.088,0.278,0.176,0.421,0.255c0.068,0.037,0.14,0.069,0.21,0.104
		c0.152,0.078,0.307,0.154,0.464,0.221c0.018,0.008,0.034,0.017,0.052,0.025l94.816,39.506l82.309,82.309H440.36
		c-4.15,0-7.515,3.365-7.515,7.515S436.21,512,440.36,512h64.125c0.03,0,0.059-0.004,0.09-0.005
		c0.216-0.003,0.433-0.012,0.649-0.033c0.122-0.012,0.24-0.034,0.36-0.052c0.122-0.018,0.245-0.032,0.368-0.056
		c0.131-0.026,0.258-0.062,0.388-0.095c0.109-0.027,0.218-0.051,0.326-0.083c0.126-0.038,0.247-0.085,0.37-0.129
		c0.108-0.039,0.217-0.075,0.325-0.119c0.115-0.048,0.224-0.103,0.337-0.156c0.11-0.052,0.221-0.101,0.33-0.159
		c0.107-0.058,0.209-0.123,0.314-0.185c0.106-0.064,0.213-0.124,0.318-0.193c0.114-0.076,0.222-0.161,0.333-0.244
		c0.085-0.064,0.174-0.123,0.258-0.192c0.384-0.314,0.735-0.665,1.05-1.049c0.071-0.085,0.132-0.176,0.198-0.264
		c0.081-0.107,0.164-0.212,0.239-0.325c0.072-0.107,0.134-0.219,0.2-0.33c0.059-0.1,0.122-0.197,0.177-0.301
		c0.061-0.114,0.112-0.231,0.167-0.348c0.049-0.105,0.102-0.209,0.147-0.318c0.047-0.114,0.086-0.23,0.127-0.347
		c0.041-0.116,0.085-0.229,0.121-0.348c0.035-0.116,0.061-0.234,0.09-0.352c0.03-0.12,0.064-0.238,0.088-0.361
		c0.027-0.136,0.044-0.275,0.063-0.412c0.014-0.105,0.035-0.209,0.045-0.316c0.024-0.249,0.037-0.497,0.037-0.745V440.36
		C512,436.21,508.635,432.845,504.485,432.845L504.485,432.845z"/>
</g>
</svg>
